<?xml version="1.0" encoding="UTF-8" standalone="no"?>
<!DOCTYPE svg PUBLIC "-//W3C//DTD SVG 1.1//EN"
 "http://www.w3.org/Graphics/SVG/1.1/DTD/svg11.dtd">
<!-- Generated by graphviz version 2.42.4 (0)
 -->
<!-- Title: workflow2 Pages: 1 -->
<svg width="349pt" height="591pt"
 viewBox="0.00 0.00 348.80 590.80" xmlns="http://www.w3.org/2000/svg" xmlns:xlink="http://www.w3.org/1999/xlink">
<g id="graph0" class="graph" transform="scale(1 1) rotate(0) translate(14.4 576.4)">
<title>workflow2</title>
<polygon fill="white" stroke="transparent" points="-14.4,14.4 -14.4,-576.4 334.4,-576.4 334.4,14.4 -14.4,14.4"/>
<!-- A -->
<g id="node1" class="node">
<title>A</title>
<path fill="#e0f2fe" stroke="#6b7280" d="M308,-562C308,-562 12,-562 12,-562 6,-562 0,-556 0,-550 0,-550 0,-528 0,-528 0,-522 6,-516 12,-516 12,-516 308,-516 308,-516 314,-516 320,-522 320,-528 320,-528 320,-550 320,-550 320,-556 314,-562 308,-562"/>
<text text-anchor="middle" x="160" y="-542.6" font-family="Helvetica,sans-Serif" font-size="13.00">1. Stand up the operating system</text>
<text text-anchor="middle" x="160" y="-528.6" font-family="Helvetica,sans-Serif" font-size="13.00">Notion hub + Linear backlog + Figma board</text>
</g>
<!-- B -->
<g id="node2" class="node">
<title>B</title>
<path fill="#fef3c7" stroke="#6b7280" d="M253.5,-476C253.5,-476 66.5,-476 66.5,-476 60.5,-476 54.5,-470 54.5,-464 54.5,-464 54.5,-442 54.5,-442 54.5,-436 60.5,-430 66.5,-430 66.5,-430 253.5,-430 253.5,-430 259.5,-430 265.5,-436 265.5,-442 265.5,-442 265.5,-464 265.5,-464 265.5,-470 259.5,-476 253.5,-476"/>
<text text-anchor="middle" x="160" y="-456.6" font-family="Helvetica,sans-Serif" font-size="13.00">2. Choose the lead protocol</text>
<text text-anchor="middle" x="160" y="-442.6" font-family="Helvetica,sans-Serif" font-size="13.00">Start with policy whiplash</text>
</g>
<!-- A&#45;&gt;B -->
<g id="edge1" class="edge">
<title>A&#45;&gt;B</title>
<path fill="none" stroke="#94a3b8" stroke-width="1.5" d="M160,-515.93C160,-506.26 160,-494.77 160,-484.32"/>
<polygon fill="#94a3b8" stroke="#94a3b8" stroke-width="1.5" points="162.8,-484.21 160,-476.21 157.2,-484.21 162.8,-484.21"/>
</g>
<!-- C -->
<g id="node3" class="node">
<title>C</title>
<path fill="#dcfce7" stroke="#6b7280" d="M294,-390C294,-390 26,-390 26,-390 20,-390 14,-384 14,-378 14,-378 14,-356 14,-356 14,-350 20,-344 26,-344 26,-344 294,-344 294,-344 300,-344 306,-350 306,-356 306,-356 306,-378 306,-378 306,-384 300,-390 294,-390"/>
<text text-anchor="middle" x="160" y="-370.6" font-family="Helvetica,sans-Serif" font-size="13.00">3. Build the shared corpus</text>
<text text-anchor="middle" x="160" y="-356.6" font-family="Helvetica,sans-Serif" font-size="13.00">API discovery + XML + metadata tables</text>
</g>
<!-- B&#45;&gt;C -->
<g id="edge2" class="edge">
<title>B&#45;&gt;C</title>
<path fill="none" stroke="#94a3b8" stroke-width="1.5" d="M160,-429.93C160,-420.26 160,-408.77 160,-398.32"/>
<polygon fill="#94a3b8" stroke="#94a3b8" stroke-width="1.5" points="162.8,-398.21 160,-390.21 157.2,-398.21 162.8,-398.21"/>
</g>
<!-- D -->
<g id="node4" class="node">
<title>D</title>
<path fill="#f3e8ff" stroke="#6b7280" d="M280,-304C280,-304 40,-304 40,-304 34,-304 28,-298 28,-292 28,-292 28,-270 28,-270 28,-264 34,-258 40,-258 40,-258 280,-258 280,-258 286,-258 292,-264 292,-270 292,-270 292,-292 292,-292 292,-298 286,-304 280,-304"/>
<text text-anchor="middle" x="160" y="-284.6" font-family="Helvetica,sans-Serif" font-size="13.00">4. Create the shared methods layer</text>
<text text-anchor="middle" x="160" y="-270.6" font-family="Helvetica,sans-Serif" font-size="13.00">Coding schemas + pilot validation</text>
</g>
<!-- C&#45;&gt;D -->
<g id="edge3" class="edge">
<title>C&#45;&gt;D</title>
<path fill="none" stroke="#94a3b8" stroke-width="1.5" d="M160,-343.93C160,-334.26 160,-322.77 160,-312.32"/>
<polygon fill="#94a3b8" stroke="#94a3b8" stroke-width="1.5" points="162.8,-312.21 160,-304.21 157.2,-312.21 162.8,-312.21"/>
</g>
<!-- E -->
<g id="node5" class="node">
<title>E</title>
<path fill="#fce7f3" stroke="#6b7280" d="M291,-218C291,-218 29,-218 29,-218 23,-218 17,-212 17,-206 17,-206 17,-184 17,-184 17,-178 23,-172 29,-172 29,-172 291,-172 291,-172 297,-172 303,-178 303,-184 303,-184 303,-206 303,-206 303,-212 297,-218 291,-218"/>
<text text-anchor="middle" x="160" y="-198.6" font-family="Helvetica,sans-Serif" font-size="13.00">5. Run project&#45;specific analysis</text>
<text text-anchor="middle" x="160" y="-184.6" font-family="Helvetica,sans-Serif" font-size="13.00">Tables + figures + interpretation notes</text>
</g>
<!-- D&#45;&gt;E -->
<g id="edge4" class="edge">
<title>D&#45;&gt;E</title>
<path fill="none" stroke="#94a3b8" stroke-width="1.5" d="M160,-257.93C160,-248.26 160,-236.77 160,-226.32"/>
<polygon fill="#94a3b8" stroke="#94a3b8" stroke-width="1.5" points="162.8,-226.21 160,-218.21 157.2,-226.21 162.8,-226.21"/>
</g>
<!-- F -->
<g id="node6" class="node">
<title>F</title>
<path fill="#fde68a" stroke="#6b7280" d="M299,-132C299,-132 21,-132 21,-132 15,-132 9,-126 9,-120 9,-120 9,-98 9,-98 9,-92 15,-86 21,-86 21,-86 299,-86 299,-86 305,-86 311,-92 311,-98 311,-98 311,-120 311,-120 311,-126 305,-132 299,-132"/>
<text text-anchor="middle" x="160" y="-112.6" font-family="Helvetica,sans-Serif" font-size="13.00">6. Draft the NZMJ paper</text>
<text text-anchor="middle" x="160" y="-98.6" font-family="Helvetica,sans-Serif" font-size="13.00">Short core paper + technical supplement</text>
</g>
<!-- E&#45;&gt;F -->
<g id="edge5" class="edge">
<title>E&#45;&gt;F</title>
<path fill="none" stroke="#94a3b8" stroke-width="1.5" d="M160,-171.93C160,-162.26 160,-150.77 160,-140.32"/>
<polygon fill="#94a3b8" stroke="#94a3b8" stroke-width="1.5" points="162.8,-140.21 160,-132.21 157.2,-140.21 162.8,-140.21"/>
</g>
<!-- G -->
<g id="node7" class="node">
<title>G</title>
<path fill="#ede9fe" stroke="#6b7280" d="M279.5,-46C279.5,-46 40.5,-46 40.5,-46 34.5,-46 28.5,-40 28.5,-34 28.5,-34 28.5,-12 28.5,-12 28.5,-6 34.5,0 40.5,0 40.5,0 279.5,0 279.5,0 285.5,0 291.5,-6 291.5,-12 291.5,-12 291.5,-34 291.5,-34 291.5,-40 285.5,-46 279.5,-46"/>
<text text-anchor="middle" x="160" y="-26.6" font-family="Helvetica,sans-Serif" font-size="13.00">7. Review, submit, and disseminate</text>
<text text-anchor="middle" x="160" y="-12.6" font-family="Helvetica,sans-Serif" font-size="13.00">Pre&#45;election briefings and visuals</text>
</g>
<!-- F&#45;&gt;G -->
<g id="edge6" class="edge">
<title>F&#45;&gt;G</title>
<path fill="none" stroke="#94a3b8" stroke-width="1.5" d="M160,-85.93C160,-76.26 160,-64.77 160,-54.32"/>
<polygon fill="#94a3b8" stroke="#94a3b8" stroke-width="1.5" points="162.8,-54.21 160,-46.21 157.2,-54.21 162.8,-54.21"/>
</g>
</g>
</svg>
