<?xml version="1.0" encoding="UTF-8" standalone="no"?>
<!DOCTYPE svg PUBLIC "-//W3C//DTD SVG 1.1//EN"
 "http://www.w3.org/Graphics/SVG/1.1/DTD/svg11.dtd">
<!-- Generated by graphviz version 2.42.4 (0)
 -->
<!-- Title: workflow Pages: 1 -->
<svg width="3504pt" height="323pt"
 viewBox="0.00 0.00 3503.80 322.80" xmlns="http://www.w3.org/2000/svg" xmlns:xlink="http://www.w3.org/1999/xlink">
<g id="graph0" class="graph" transform="scale(1 1) rotate(0) translate(14.4 308.4)">
<title>workflow</title>
<polygon fill="white" stroke="transparent" points="-14.4,14.4 -14.4,-308.4 3489.4,-308.4 3489.4,14.4 -14.4,14.4"/>
<!-- A -->
<g id="node1" class="node">
<title>A</title>
<path fill="#e0f2fe" stroke="#6b7280" d="M96,-108C96,-108 12,-108 12,-108 6,-108 0,-102 0,-96 0,-96 0,-84 0,-84 0,-78 6,-72 12,-72 12,-72 96,-72 96,-72 102,-72 108,-78 108,-84 108,-84 108,-96 108,-96 108,-102 102,-108 96,-108"/>
<text text-anchor="middle" x="54" y="-86.9" font-family="Helvetica,sans-Serif" font-size="12.00">Initiative setup</text>
</g>
<!-- B -->
<g id="node2" class="node">
<title>B</title>
<path fill="#f1f5f9" stroke="#6b7280" d="M323.5,-180C323.5,-180 186.5,-180 186.5,-180 180.5,-180 174.5,-174 174.5,-168 174.5,-168 174.5,-156 174.5,-156 174.5,-150 180.5,-144 186.5,-144 186.5,-144 323.5,-144 323.5,-144 329.5,-144 335.5,-150 335.5,-156 335.5,-156 335.5,-168 335.5,-168 335.5,-174 329.5,-180 323.5,-180"/>
<text text-anchor="middle" x="255" y="-158.9" font-family="Helvetica,sans-Serif" font-size="12.00">Notion programme hub</text>
</g>
<!-- A&#45;&gt;B -->
<g id="edge1" class="edge">
<title>A&#45;&gt;B</title>
<path fill="none" stroke="#94a3b8" stroke-width="1.4" d="M104.96,-108.08C132.76,-118.13 167.48,-130.69 196.41,-141.16"/>
<polygon fill="#94a3b8" stroke="#94a3b8" stroke-width="1.4" points="195.54,-143.83 204.02,-143.92 197.45,-138.56 195.54,-143.83"/>
</g>
<!-- C -->
<g id="node3" class="node">
<title>C</title>
<path fill="#f1f5f9" stroke="#6b7280" d="M332,-108C332,-108 178,-108 178,-108 172,-108 166,-102 166,-96 166,-96 166,-84 166,-84 166,-78 172,-72 178,-72 178,-72 332,-72 332,-72 338,-72 344,-78 344,-84 344,-84 344,-96 344,-96 344,-102 338,-108 332,-108"/>
<text text-anchor="middle" x="255" y="-86.9" font-family="Helvetica,sans-Serif" font-size="12.00">Linear initiative and issues</text>
</g>
<!-- A&#45;&gt;C -->
<g id="edge2" class="edge">
<title>A&#45;&gt;C</title>
<path fill="none" stroke="#94a3b8" stroke-width="1.4" d="M108.07,-90C123.3,-90 140.42,-90 157.41,-90"/>
<polygon fill="#94a3b8" stroke="#94a3b8" stroke-width="1.4" points="157.74,-92.8 165.74,-90 157.74,-87.2 157.74,-92.8"/>
</g>
<!-- D -->
<g id="node4" class="node">
<title>D</title>
<path fill="#f1f5f9" stroke="#6b7280" d="M319.5,-36C319.5,-36 190.5,-36 190.5,-36 184.5,-36 178.5,-30 178.5,-24 178.5,-24 178.5,-12 178.5,-12 178.5,-6 184.5,0 190.5,0 190.5,0 319.5,0 319.5,0 325.5,0 331.5,-6 331.5,-12 331.5,-12 331.5,-24 331.5,-24 331.5,-30 325.5,-36 319.5,-36"/>
<text text-anchor="middle" x="255" y="-14.9" font-family="Helvetica,sans-Serif" font-size="12.00">Figma workflow board</text>
</g>
<!-- A&#45;&gt;D -->
<g id="edge3" class="edge">
<title>A&#45;&gt;D</title>
<path fill="none" stroke="#94a3b8" stroke-width="1.4" d="M104.96,-71.92C132.76,-61.87 167.48,-49.31 196.41,-38.84"/>
<polygon fill="#94a3b8" stroke="#94a3b8" stroke-width="1.4" points="197.45,-41.44 204.02,-36.08 195.54,-36.17 197.45,-41.44"/>
</g>
<!-- E -->
<g id="node5" class="node">
<title>E</title>
<path fill="#fef3c7" stroke="#6b7280" d="M529,-108C529,-108 414,-108 414,-108 408,-108 402,-102 402,-96 402,-96 402,-84 402,-84 402,-78 408,-72 414,-72 414,-72 529,-72 529,-72 535,-72 541,-78 541,-84 541,-84 541,-96 541,-96 541,-102 535,-108 529,-108"/>
<text text-anchor="middle" x="471.5" y="-86.9" font-family="Helvetica,sans-Serif" font-size="12.00">Select lead protocol</text>
</g>
<!-- B&#45;&gt;E -->
<g id="edge4" class="edge">
<title>B&#45;&gt;E</title>
<path fill="none" stroke="#94a3b8" stroke-width="1.4" d="M309.85,-143.92C339.94,-133.82 377.56,-121.2 408.82,-110.7"/>
<polygon fill="#94a3b8" stroke="#94a3b8" stroke-width="1.4" points="409.93,-113.28 416.63,-108.08 408.15,-107.97 409.93,-113.28"/>
</g>
<!-- C&#45;&gt;E -->
<g id="edge5" class="edge">
<title>C&#45;&gt;E</title>
<path fill="none" stroke="#94a3b8" stroke-width="1.4" d="M344.17,-90C360.51,-90 377.45,-90 393.42,-90"/>
<polygon fill="#94a3b8" stroke="#94a3b8" stroke-width="1.4" points="393.68,-92.8 401.68,-90 393.68,-87.2 393.68,-92.8"/>
</g>
<!-- D&#45;&gt;E -->
<g id="edge6" class="edge">
<title>D&#45;&gt;E</title>
<path fill="none" stroke="#94a3b8" stroke-width="1.4" d="M309.85,-36.08C339.94,-46.18 377.56,-58.8 408.82,-69.3"/>
<polygon fill="#94a3b8" stroke="#94a3b8" stroke-width="1.4" points="408.15,-72.03 416.63,-71.92 409.93,-66.72 408.15,-72.03"/>
</g>
<!-- F -->
<g id="node6" class="node">
<title>F</title>
<path fill="#f8fafc" stroke="#6b7280" d="M761,-108C761,-108 611,-108 611,-108 605,-108 599,-102 599,-96 599,-96 599,-84 599,-84 599,-78 605,-72 611,-72 611,-72 761,-72 761,-72 767,-72 773,-78 773,-84 773,-84 773,-96 773,-96 773,-102 767,-108 761,-108"/>
<text text-anchor="middle" x="686" y="-86.9" font-family="Helvetica,sans-Serif" font-size="12.00">Define corpus boundaries</text>
</g>
<!-- E&#45;&gt;F -->
<g id="edge7" class="edge">
<title>E&#45;&gt;F</title>
<path fill="none" stroke="#94a3b8" stroke-width="1.4" d="M541.2,-90C556.93,-90 573.93,-90 590.54,-90"/>
<polygon fill="#94a3b8" stroke="#94a3b8" stroke-width="1.4" points="590.65,-92.8 598.65,-90 590.65,-87.2 590.65,-92.8"/>
</g>
<!-- G -->
<g id="node7" class="node">
<title>G</title>
<path fill="#f8fafc" stroke="#6b7280" d="M963,-108C963,-108 843,-108 843,-108 837,-108 831,-102 831,-96 831,-96 831,-84 831,-84 831,-78 837,-72 843,-72 843,-72 963,-72 963,-72 969,-72 975,-78 975,-84 975,-84 975,-96 975,-96 975,-102 969,-108 963,-108"/>
<text text-anchor="middle" x="903" y="-86.9" font-family="Helvetica,sans-Serif" font-size="12.00">Query legislation API</text>
</g>
<!-- F&#45;&gt;G -->
<g id="edge8" class="edge">
<title>F&#45;&gt;G</title>
<path fill="none" stroke="#94a3b8" stroke-width="1.4" d="M773.21,-90C789.53,-90 806.52,-90 822.62,-90"/>
<polygon fill="#94a3b8" stroke="#94a3b8" stroke-width="1.4" points="822.94,-92.8 830.94,-90 822.94,-87.2 822.94,-92.8"/>
</g>
<!-- H -->
<g id="node8" class="node">
<title>H</title>
<path fill="#f8fafc" stroke="#6b7280" d="M1207,-108C1207,-108 1045,-108 1045,-108 1039,-108 1033,-102 1033,-96 1033,-96 1033,-84 1033,-84 1033,-78 1039,-72 1045,-72 1045,-72 1207,-72 1207,-72 1213,-72 1219,-78 1219,-84 1219,-84 1219,-96 1219,-96 1219,-102 1213,-108 1207,-108"/>
<text text-anchor="middle" x="1126" y="-86.9" font-family="Helvetica,sans-Serif" font-size="12.00">Build versioned XML corpus</text>
</g>
<!-- G&#45;&gt;H -->
<g id="edge9" class="edge">
<title>G&#45;&gt;H</title>
<path fill="none" stroke="#94a3b8" stroke-width="1.4" d="M975.14,-90C990.97,-90 1008.05,-90 1024.8,-90"/>
<polygon fill="#94a3b8" stroke="#94a3b8" stroke-width="1.4" points="1024.99,-92.8 1032.99,-90 1024.99,-87.2 1024.99,-92.8"/>
</g>
<!-- I -->
<g id="node9" class="node">
<title>I</title>
<path fill="#f8fafc" stroke="#6b7280" d="M1421,-108C1421,-108 1289,-108 1289,-108 1283,-108 1277,-102 1277,-96 1277,-96 1277,-84 1277,-84 1277,-78 1283,-72 1289,-72 1289,-72 1421,-72 1421,-72 1427,-72 1433,-78 1433,-84 1433,-84 1433,-96 1433,-96 1433,-102 1427,-108 1421,-108"/>
<text text-anchor="middle" x="1355" y="-86.9" font-family="Helvetica,sans-Serif" font-size="12.00">Create metadata table</text>
</g>
<!-- H&#45;&gt;I -->
<g id="edge10" class="edge">
<title>H&#45;&gt;I</title>
<path fill="none" stroke="#94a3b8" stroke-width="1.4" d="M1219,-90C1235.33,-90 1252.27,-90 1268.41,-90"/>
<polygon fill="#94a3b8" stroke="#94a3b8" stroke-width="1.4" points="1268.77,-92.8 1276.77,-90 1268.77,-87.2 1268.77,-92.8"/>
</g>
<!-- J -->
<g id="node10" class="node">
<title>J</title>
<path fill="#f8fafc" stroke="#6b7280" d="M1624,-108C1624,-108 1503,-108 1503,-108 1497,-108 1491,-102 1491,-96 1491,-96 1491,-84 1491,-84 1491,-78 1497,-72 1503,-72 1503,-72 1624,-72 1624,-72 1630,-72 1636,-78 1636,-84 1636,-84 1636,-96 1636,-96 1636,-102 1630,-108 1624,-108"/>
<text text-anchor="middle" x="1563.5" y="-86.9" font-family="Helvetica,sans-Serif" font-size="12.00">Draft coding schema</text>
</g>
<!-- I&#45;&gt;J -->
<g id="edge11" class="edge">
<title>I&#45;&gt;J</title>
<path fill="none" stroke="#94a3b8" stroke-width="1.4" d="M1433.19,-90C1449.28,-90 1466.28,-90 1482.48,-90"/>
<polygon fill="#94a3b8" stroke="#94a3b8" stroke-width="1.4" points="1482.87,-92.8 1490.87,-90 1482.87,-87.2 1482.87,-92.8"/>
</g>
<!-- K -->
<g id="node11" class="node">
<title>K</title>
<path fill="#f8fafc" stroke="#6b7280" d="M1859,-145C1859,-145 1706,-145 1706,-145 1700,-145 1694,-139 1694,-133 1694,-133 1694,-121 1694,-121 1694,-115 1700,-109 1706,-109 1706,-109 1859,-109 1859,-109 1865,-109 1871,-115 1871,-121 1871,-121 1871,-133 1871,-133 1871,-139 1865,-145 1859,-145"/>
<text text-anchor="middle" x="1782.5" y="-123.9" font-family="Helvetica,sans-Serif" font-size="12.00">Pilot coding and validation</text>
</g>
<!-- J&#45;&gt;K -->
<g id="edge12" class="edge">
<title>J&#45;&gt;K</title>
<path fill="none" stroke="#94a3b8" stroke-width="1.4" d="M1636.16,-102.22C1651.96,-104.91 1668.95,-107.81 1685.55,-110.64"/>
<polygon fill="#94a3b8" stroke="#94a3b8" stroke-width="1.4" points="1685.3,-113.44 1693.66,-112.02 1686.24,-107.92 1685.3,-113.44"/>
</g>
<!-- R -->
<g id="node18" class="node">
<title>R</title>
<path fill="#f3e8ff" stroke="#6b7280" d="M2569,-219C2569,-219 2432,-219 2432,-219 2426,-219 2420,-213 2420,-207 2420,-207 2420,-195 2420,-195 2420,-189 2426,-183 2432,-183 2432,-183 2569,-183 2569,-183 2575,-183 2581,-189 2581,-195 2581,-195 2581,-207 2581,-207 2581,-213 2575,-219 2569,-219"/>
<text text-anchor="middle" x="2500.5" y="-197.9" font-family="Helvetica,sans-Serif" font-size="12.00">Shared methods library</text>
</g>
<!-- J&#45;&gt;R -->
<g id="edge19" class="edge">
<title>J&#45;&gt;R</title>
<path fill="none" stroke="#94a3b8" stroke-width="1.4" d="M1636.14,-87.44C1698.32,-85.88 1790.73,-85.18 1871,-91 2090.85,-106.95 2146.52,-114.54 2362,-161 2386.56,-166.3 2413.16,-173.65 2436.37,-180.6"/>
<polygon fill="#94a3b8" stroke="#94a3b8" stroke-width="1.4" points="2435.63,-183.3 2444.1,-182.94 2437.25,-177.94 2435.63,-183.3"/>
</g>
<!-- L -->
<g id="node12" class="node">
<title>L</title>
<path fill="#dcfce7" stroke="#6b7280" d="M2124,-219C2124,-219 1941,-219 1941,-219 1935,-219 1929,-213 1929,-207 1929,-207 1929,-195 1929,-195 1929,-189 1935,-183 1941,-183 1941,-183 2124,-183 2124,-183 2130,-183 2136,-189 2136,-195 2136,-195 2136,-207 2136,-207 2136,-213 2130,-219 2124,-219"/>
<text text-anchor="middle" x="2032.5" y="-197.9" font-family="Helvetica,sans-Serif" font-size="12.00">Run full extraction and analysis</text>
</g>
<!-- K&#45;&gt;L -->
<g id="edge13" class="edge">
<title>K&#45;&gt;L</title>
<path fill="none" stroke="#94a3b8" stroke-width="1.4" d="M1843.85,-145.01C1879.86,-155.75 1925.69,-169.43 1963.04,-180.57"/>
<polygon fill="#94a3b8" stroke="#94a3b8" stroke-width="1.4" points="1962.41,-183.31 1970.88,-182.91 1964.01,-177.94 1962.41,-183.31"/>
</g>
<!-- K&#45;&gt;R -->
<g id="edge20" class="edge">
<title>K&#45;&gt;R</title>
<path fill="none" stroke="#94a3b8" stroke-width="1.4" d="M1871.3,-136.07C2008.96,-150.3 2274.07,-177.7 2411.72,-191.93"/>
<polygon fill="#94a3b8" stroke="#94a3b8" stroke-width="1.4" points="2411.55,-194.72 2419.8,-192.76 2412.13,-189.15 2411.55,-194.72"/>
</g>
<!-- M -->
<g id="node13" class="node">
<title>M</title>
<path fill="#dcfce7" stroke="#6b7280" d="M2350,-294C2350,-294 2206,-294 2206,-294 2200,-294 2194,-288 2194,-282 2194,-282 2194,-268 2194,-268 2194,-262 2200,-256 2206,-256 2206,-256 2350,-256 2350,-256 2356,-256 2362,-262 2362,-268 2362,-268 2362,-282 2362,-282 2362,-288 2356,-294 2350,-294"/>
<text text-anchor="middle" x="2278" y="-278.4" font-family="Helvetica,sans-Serif" font-size="12.00">Generate tables, figures,</text>
<text text-anchor="middle" x="2278" y="-265.4" font-family="Helvetica,sans-Serif" font-size="12.00">and appendices</text>
</g>
<!-- L&#45;&gt;M -->
<g id="edge14" class="edge">
<title>L&#45;&gt;M</title>
<path fill="none" stroke="#94a3b8" stroke-width="1.4" d="M2092.76,-219.01C2126.91,-229.39 2170.08,-242.51 2206.04,-253.43"/>
<polygon fill="#94a3b8" stroke="#94a3b8" stroke-width="1.4" points="2205.6,-256.23 2214.07,-255.87 2207.23,-250.87 2205.6,-256.23"/>
</g>
<!-- L&#45;&gt;R -->
<g id="edge21" class="edge">
<title>L&#45;&gt;R</title>
<path fill="none" stroke="#94a3b8" stroke-width="1.4" d="M2136.05,-201C2218.53,-201 2333.19,-201 2411.53,-201"/>
<polygon fill="#94a3b8" stroke="#94a3b8" stroke-width="1.4" points="2411.94,-203.8 2419.94,-201 2411.94,-198.2 2411.94,-203.8"/>
</g>
<!-- N -->
<g id="node14" class="node">
<title>N</title>
<path fill="#fce7f3" stroke="#6b7280" d="M2784,-255C2784,-255 2651,-255 2651,-255 2645,-255 2639,-249 2639,-243 2639,-243 2639,-231 2639,-231 2639,-225 2645,-219 2651,-219 2651,-219 2784,-219 2784,-219 2790,-219 2796,-225 2796,-231 2796,-231 2796,-243 2796,-243 2796,-249 2790,-255 2784,-255"/>
<text text-anchor="middle" x="2717.5" y="-233.9" font-family="Helvetica,sans-Serif" font-size="12.00">Draft NZMJ manuscript</text>
</g>
<!-- M&#45;&gt;N -->
<g id="edge15" class="edge">
<title>M&#45;&gt;N</title>
<path fill="none" stroke="#94a3b8" stroke-width="1.4" d="M2362.06,-267.79C2438.94,-261.11 2552.76,-251.22 2630.55,-244.47"/>
<polygon fill="#94a3b8" stroke="#94a3b8" stroke-width="1.4" points="2631.17,-247.22 2638.9,-243.74 2630.69,-241.64 2631.17,-247.22"/>
</g>
<!-- M&#45;&gt;R -->
<g id="edge22" class="edge">
<title>M&#45;&gt;R</title>
<path fill="none" stroke="#94a3b8" stroke-width="1.4" d="M2335.78,-255.94C2366.96,-245.48 2405.65,-232.49 2437.6,-221.77"/>
<polygon fill="#94a3b8" stroke="#94a3b8" stroke-width="1.4" points="2438.87,-224.3 2445.57,-219.1 2437.09,-218.99 2438.87,-224.3"/>
</g>
<!-- O -->
<g id="node15" class="node">
<title>O</title>
<path fill="#fce7f3" stroke="#6b7280" d="M3027,-255C3027,-255 2866,-255 2866,-255 2860,-255 2854,-249 2854,-243 2854,-243 2854,-231 2854,-231 2854,-225 2860,-219 2866,-219 2866,-219 3027,-219 3027,-219 3033,-219 3039,-225 3039,-231 3039,-231 3039,-243 3039,-243 3039,-249 3033,-255 3027,-255"/>
<text text-anchor="middle" x="2946.5" y="-233.9" font-family="Helvetica,sans-Serif" font-size="12.00">Internal review and revision</text>
</g>
<!-- N&#45;&gt;O -->
<g id="edge16" class="edge">
<title>N&#45;&gt;O</title>
<path fill="none" stroke="#94a3b8" stroke-width="1.4" d="M2796.3,-237C2812.19,-237 2829.11,-237 2845.64,-237"/>
<polygon fill="#94a3b8" stroke="#94a3b8" stroke-width="1.4" points="2845.71,-239.8 2853.71,-237 2845.71,-234.2 2845.71,-239.8"/>
</g>
<!-- P -->
<g id="node16" class="node">
<title>P</title>
<path fill="#fce7f3" stroke="#6b7280" d="M3228,-255C3228,-255 3109,-255 3109,-255 3103,-255 3097,-249 3097,-243 3097,-243 3097,-231 3097,-231 3097,-225 3103,-219 3109,-219 3109,-219 3228,-219 3228,-219 3234,-219 3240,-225 3240,-231 3240,-231 3240,-243 3240,-243 3240,-249 3234,-255 3228,-255"/>
<text text-anchor="middle" x="3168.5" y="-233.9" font-family="Helvetica,sans-Serif" font-size="12.00">Submission package</text>
</g>
<!-- O&#45;&gt;P -->
<g id="edge17" class="edge">
<title>O&#45;&gt;P</title>
<path fill="none" stroke="#94a3b8" stroke-width="1.4" d="M3039.21,-237C3055.57,-237 3072.49,-237 3088.47,-237"/>
<polygon fill="#94a3b8" stroke="#94a3b8" stroke-width="1.4" points="3088.72,-239.8 3096.72,-237 3088.72,-234.2 3088.72,-239.8"/>
</g>
<!-- Q -->
<g id="node17" class="node">
<title>Q</title>
<path fill="#ede9fe" stroke="#6b7280" d="M3463,-255C3463,-255 3310,-255 3310,-255 3304,-255 3298,-249 3298,-243 3298,-243 3298,-231 3298,-231 3298,-225 3304,-219 3310,-219 3310,-219 3463,-219 3463,-219 3469,-219 3475,-225 3475,-231 3475,-231 3475,-243 3475,-243 3475,-249 3469,-255 3463,-255"/>
<text text-anchor="middle" x="3386.5" y="-233.9" font-family="Helvetica,sans-Serif" font-size="12.00">Pre&#45;election dissemination</text>
</g>
<!-- P&#45;&gt;Q -->
<g id="edge18" class="edge">
<title>P&#45;&gt;Q</title>
<path fill="none" stroke="#94a3b8" stroke-width="1.4" d="M3240.23,-237C3255.98,-237 3272.94,-237 3289.52,-237"/>
<polygon fill="#94a3b8" stroke="#94a3b8" stroke-width="1.4" points="3289.62,-239.8 3297.62,-237 3289.62,-234.2 3289.62,-239.8"/>
</g>
<!-- R&#45;&gt;N -->
<g id="edge23" class="edge">
<title>R&#45;&gt;N</title>
<path fill="none" stroke="#94a3b8" stroke-width="1.4" d="M2581.25,-214.35C2597.38,-217.05 2614.39,-219.9 2630.72,-222.64"/>
<polygon fill="#94a3b8" stroke="#94a3b8" stroke-width="1.4" points="2630.31,-225.41 2638.66,-223.97 2631.24,-219.88 2630.31,-225.41"/>
</g>
</g>
</svg>
